<?xml version="1.0" encoding="UTF-8"?>
<svg width="50px" height="50px" viewBox="0 0 50 50" version="1.1" xmlns="http://www.w3.org/2000/svg" xmlns:xlink="http://www.w3.org/1999/xlink">
    <!-- Generator: Sketch 41.2 (35397) - http://www.bohemiancoding.com/sketch -->
    <title>004-rotate</title>
    <desc>Created with Sketch.</desc>
    <defs></defs>
    <g id="Page-1" stroke="none" stroke-width="1" fill="none" fill-rule="evenodd">
        <g id="004-rotate" fill="#000000">
            <g id="Group">
                <path d="M25.78125,1.5625 C31.8328125,1.5625 37.521875,3.91953125 41.8007812,8.1984375 C49.7210937,16.1179688 50.6367188,28.8203125 43.9414062,37.7679687 L40.625,41.0851563 L40.625,34.375 L39.0625,34.375 L39.0625,42.96875 L39.84375,43.75 L48.4375,43.75 L48.4375,42.1875 L41.7328125,42.1875 L45.0859375,38.8335937 L45.1578125,38.7507813 C52.3539063,29.1828125 51.3859375,15.5734375 42.9054687,7.09375 C38.33125,2.51953125 32.25,0 25.78125,0 L25.78125,1.5625 Z" id="Shape"></path>
                <path d="M6.05859375,12.2320313 L9.375,8.91484375 L9.375,15.625 L10.9375,15.625 L10.9375,7.03125 L10.15625,6.25 L1.5625,6.25 L1.5625,7.8125 L8.2671875,7.8125 L4.9140625,11.1664062 L4.8421875,11.2492188 C-2.35390625,20.8171875 -1.38515625,34.4265625 7.09453125,42.90625 C11.66875,47.4804688 17.75,50 24.21875,50 L24.21875,48.4375 C18.1671875,48.4375 12.478125,46.0804687 8.19921875,41.8015625 C0.27890625,33.8820312 -0.6359375,21.1796875 6.05859375,12.2320313 Z" id="Shape"></path>
            </g>
        </g>
    </g>
</svg>