<?xml version="1.0" encoding="UTF-8"?>
<svg width="54px" height="50px" viewBox="0 0 54 50" version="1.1" xmlns="http://www.w3.org/2000/svg" xmlns:xlink="http://www.w3.org/1999/xlink">
    <!-- Generator: Sketch 41.2 (35397) - http://www.bohemiancoding.com/sketch -->
    <title>002-users</title>
    <desc>Created with Sketch.</desc>
    <defs></defs>
    <g id="Page-1" stroke="none" stroke-width="1" fill="none" fill-rule="evenodd">
        <g id="002-users" fill="#000000">
            <path d="M49.1196429,38.7401786 L40.5901786,34.4758929 C39.7857143,34.0732143 39.2857143,33.2642857 39.2857143,32.3642857 L39.2857143,29.3455357 C39.4901786,29.0955357 39.7053571,28.8107143 39.9276786,28.4964286 C41.0339286,26.9339286 41.9205357,25.1946429 42.5651786,23.31875 C43.825,22.7410714 44.6428571,21.4955357 44.6428571,20.0892857 L44.6428571,16.5178571 C44.6428571,15.6580357 44.3214286,14.825 43.75,14.1741071 L43.75,9.425 C43.8,8.93392857 43.9964286,6.01071429 41.8821429,3.59910714 C40.0482143,1.50714286 37.0723214,0.446428571 33.0357143,0.446428571 C28.9991071,0.446428571 26.0232143,1.50714286 24.1892857,3.59821429 C22.9080357,5.05982143 22.4767857,6.70625 22.3464286,7.88839286 C20.8160714,7.09732143 19.0125,6.69642857 16.9642857,6.69642857 C7.68839286,6.69642857 7.14821429,14.6026786 7.14285714,14.7321429 L7.14285714,18.8205357 C6.56428571,19.4508929 6.25,20.1785714 6.25,20.9008929 L6.25,23.9848214 C6.25,24.9482143 6.68125,25.8464286 7.42053571,26.4535714 C8.15714286,29.2303571 9.96875,31.3285714 10.6741071,32.0651786 L10.6741071,34.5142857 C10.6741071,35.2169643 10.2919643,35.8616071 9.62857143,36.2241071 L3.68839286,39.95 C1.41339286,41.1910714 0,43.5723214 0,46.1633929 L0,49.5535714 L12.5,49.5535714 L14.2857143,49.5535714 L53.5714286,49.5535714 L53.5714286,45.94375 C53.5714286,42.8741071 51.8651786,40.1133929 49.1196429,38.7401786 Z M12.5,45.7696429 L12.5,47.7678571 L1.78571429,47.7678571 L1.78571429,46.1633929 C1.78571429,44.2258929 2.84285714,42.4455357 4.59017857,41.4910714 L10.5294643,37.7651786 C11.7196429,37.1160714 12.4589286,35.8714286 12.4589286,34.5142857 L12.4589286,31.3080357 L12.175,31.0428571 C12.1517857,31.0214286 9.77946429,28.7803571 9.07857143,25.7258929 L8.99732143,25.3723214 L8.69196429,25.1758929 C8.28125,24.9098214 8.03571429,24.4642857 8.03571429,23.9848214 L8.03571429,20.9008929 C8.03571429,20.5794643 8.25446429,20.1973214 8.63482143,19.8526786 L8.92857143,19.5875 L8.92678571,14.7839286 C8.94285714,14.5276786 9.40803571,8.48214286 16.9642857,8.48214286 C19.1008929,8.48214286 20.9,8.97589286 22.3214286,9.95 L22.3214286,14.1741071 C21.75,14.825 21.4285714,15.6580357 21.4285714,16.5178571 L21.4285714,20.0892857 C21.4285714,20.3607143 21.4598214,20.6276786 21.51875,20.8866071 C21.5428571,20.9901786 21.5910714,21.0848214 21.6241071,21.1848214 C21.6732143,21.3348214 21.7125,21.4892857 21.78125,21.63125 C21.7821429,21.6330357 21.7830357,21.6339286 21.7839286,21.6357143 C22.0125,22.1071429 22.3455357,22.5285714 22.7651786,22.8651786 C22.7696429,22.8821429 22.775,22.8973214 22.7794643,22.9133929 C22.8330357,23.1178571 22.8892857,23.3214286 22.95,23.5205357 L23.0223214,23.7535714 C23.0348214,23.7946429 23.05,23.8366071 23.0633929,23.8776786 C23.0946429,23.9741071 23.125,24.0696429 23.1571429,24.1642857 C23.2107143,24.3205357 23.2669643,24.4821429 23.3321429,24.6580357 C23.3598214,24.73125 23.3901786,24.7973214 23.41875,24.8696429 C23.4919643,25.05625 23.5651786,25.2366071 23.6419643,25.4151786 C23.6607143,25.4580357 23.6767857,25.5044643 23.6955357,25.5464286 L23.7455357,25.6589286 C23.76875,25.7107143 23.7928571,25.7571429 23.8160714,25.8080357 C23.9035714,25.9991071 23.9892857,26.1839286 24.0785714,26.3625 C24.0928571,26.3910714 24.10625,26.4223214 24.1205357,26.4508929 C24.1767857,26.5625 24.2330357,26.6678571 24.2892857,26.775 C24.3857143,26.9589286 24.4803571,27.1321429 24.575,27.3 C24.6214286,27.3821429 24.6669643,27.4625 24.7125,27.5401786 C24.8410714,27.7598214 24.9633929,27.9616071 25.0821429,28.1491071 C25.1080357,28.1892857 25.1330357,28.23125 25.1580357,28.2696429 C25.3741071,28.6044643 25.5616071,28.8758929 25.7169643,29.0875 C25.7580357,29.14375 25.79375,29.1919643 25.8285714,29.2392857 C25.8482143,29.2651786 25.875,29.3026786 25.8919643,29.3258929 L25.8919643,32.2803571 C25.8919643,33.1446429 25.4205357,33.9375 24.6625,34.3517857 L22.3,35.6401786 L21.8883929,35.6035714 L21.7205357,35.95625 L16.6973214,38.6964286 C14.1080357,40.1107143 12.5,42.8196429 12.5,45.7696429 Z M51.7857143,47.7678571 L14.2857143,47.7678571 L14.2857143,45.7696429 C14.2857143,43.4741071 15.5375,41.3642857 17.5526786,40.2660714 L25.5178571,35.9214286 C26.8508929,35.19375 27.6785714,33.7982143 27.6785714,32.28125 L27.6785714,28.69375 L27.6785714,28.6928571 L27.5053571,28.4857143 L27.4714286,28.4455357 C27.4696429,28.4428571 27.4142857,28.3758929 27.3241071,28.2580357 C27.31875,28.2508929 27.3133929,28.24375 27.3071429,28.2366071 C27.2598214,28.175 27.2044643,28.1008929 27.1410714,28.0125 C27.1401786,28.0107143 27.1392857,28.0098214 27.1383929,28.0080357 C27.0053571,27.8232143 26.8383929,27.5830357 26.6526786,27.29375 C26.6482143,27.2875 26.6446429,27.2803571 26.6401786,27.2741071 C26.5526786,27.1375 26.4598214,26.9883929 26.3651786,26.8303571 C26.3580357,26.81875 26.3508929,26.8071429 26.34375,26.7946429 C26.1419643,26.45625 25.9276786,26.0732143 25.7142857,25.6491071 C25.7142857,25.6491071 25.7133929,25.6482143 25.7133929,25.6473214 C25.6,25.4196429 25.4866071,25.1803571 25.3758929,24.93125 L25.3758929,24.93125 C25.3607143,24.8964286 25.3446429,24.8625 25.3294643,24.8276786 L25.3294643,24.8276786 C25.2803571,24.7160714 25.23125,24.5991071 25.18125,24.4785714 C25.1633929,24.4348214 25.1455357,24.3892857 25.1276786,24.3446429 C25.08125,24.2276786 25.0339286,24.1098214 24.9839286,23.975 C24.8928571,23.7321429 24.8071429,23.4785714 24.725,23.2169643 L24.6758929,23.0580357 C24.6705357,23.0401786 24.6642857,23.0223214 24.6589286,23.0035714 C24.575,22.7214286 24.4946429,22.4330357 24.4267857,22.1366071 L24.3455357,21.7830357 L24.0410714,21.5866071 C23.5232143,21.2526786 23.2142857,20.6928571 23.2142857,20.0892857 L23.2142857,16.5178571 C23.2142857,16.0169643 23.4267857,15.55 23.8125,15.2008929 L24.1071429,14.9357143 L24.1071429,9.375 L24.1071429,9.05892857 L24.0830357,9.04017857 C24.0526786,8.39553571 24.0910714,6.41964286 25.5321429,4.77589286 C27.0116071,3.0875 29.5366071,2.23214286 33.0357143,2.23214286 C36.5223214,2.23214286 39.0419643,3.08125 40.5232143,4.75714286 C42.2616071,6.72232143 41.9741071,9.23660714 41.9723214,9.25803571 L41.9642857,14.9357143 L42.2589286,15.2017857 C42.6446429,15.55 42.8571429,16.0169643 42.8571429,16.5178571 L42.8571429,20.0892857 C42.8571429,20.86875 42.3464286,21.5508929 41.5875,21.7848214 L41.1428571,21.9214286 L41,22.3633929 C40.4026786,24.2214286 39.5517857,25.9375 38.4696429,27.4642857 C38.2044643,27.8401786 37.9464286,28.1732143 37.7223214,28.4276786 L37.5,28.68125 L37.5,32.3642857 C37.5,33.9446429 38.3776786,35.3651786 39.7910714,36.0723214 L48.3205357,40.3366071 C50.4580357,41.4053571 51.7857143,43.5535714 51.7857143,45.94375 L51.7857143,47.7678571 Z" id="Shape"></path>
        </g>
    </g>
</svg>