<?xml version="1.0" encoding="UTF-8"?>
<svg width="50px" height="50px" viewBox="0 0 50 50" version="1.1" xmlns="http://www.w3.org/2000/svg" xmlns:xlink="http://www.w3.org/1999/xlink">
    <!-- Generator: Sketch 41.2 (35397) - http://www.bohemiancoding.com/sketch -->
    <title>001-presentation</title>
    <desc>Created with Sketch.</desc>
    <defs></defs>
    <g id="Page-1" stroke="none" stroke-width="1" fill="none" fill-rule="evenodd">
        <g id="001-presentation" fill="#000000">
            <g id="Group">
                <path d="M50,6.66666667 L50,0 L0,0 L0,6.66666667 L1.66666667,6.66666667 L1.66666667,40 L0.833333333,40 C0.373333333,40 0,40.3725 0,40.8333333 C0,41.2941667 0.373333333,41.6666667 0.833333333,41.6666667 L1.66666667,41.6666667 L24.1666667,41.6666667 L24.1666667,43.3333333 C24.1666667,43.3725 24.1841667,43.4066667 24.1891667,43.445 C22.7441667,43.8091667 21.6666667,45.1091667 21.6666667,46.6666667 C21.6666667,48.505 23.1616667,50 25,50 C26.8383333,50 28.3333333,48.505 28.3333333,46.6666667 C28.3333333,45.1091667 27.2558333,43.8091667 25.8108333,43.445 C25.8158333,43.4066667 25.8333333,43.3725 25.8333333,43.3333333 L25.8333333,41.6666667 L48.3333333,41.6666667 L49.1666667,41.6666667 C49.6266667,41.6666667 50,41.2941667 50,40.8333333 C50,40.3725 49.6266667,40 49.1666667,40 L48.3333333,40 L48.3333333,6.66666667 L50,6.66666667 Z M26.6666667,46.6666667 C26.6666667,47.5858333 25.9191667,48.3333333 25,48.3333333 C24.0808333,48.3333333 23.3333333,47.5858333 23.3333333,46.6666667 C23.3333333,45.7475 24.0808333,45 25,45 C25.9191667,45 26.6666667,45.7475 26.6666667,46.6666667 Z M1.66666667,1.66666667 L48.3333333,1.66666667 L48.3333333,5 L1.66666667,5 L1.66666667,1.66666667 Z M46.6666667,40 L3.33333333,40 L3.33333333,6.66666667 L46.6666667,6.66666667 L46.6666667,40 Z" id="Shape"></path>
                <circle id="Oval" cx="17.5" cy="18.3333333" r="0.833333333"></circle>
                <ellipse id="Oval" cx="17.5" cy="21.6666667" rx="0.833333333" ry="0.833333333"></ellipse>
                <circle id="Oval" cx="17.5" cy="25" r="0.833333333"></circle>
                <circle id="Oval" cx="17.5" cy="28.3333333" r="0.833333333"></circle>
                <ellipse id="Oval" cx="17.5" cy="31.6666667" rx="0.833333333" ry="0.833333333"></ellipse>
                <path d="M6.66666667,35 L9.16666667,35 L14.1666667,35 L15.8333333,35 L19.1666667,35 L20.8333333,35 L24.1666667,35 L25.8333333,35 L29.1666667,35 L30.8333333,35 L34.1666667,35 L35.8333333,35 L40.8333333,35 L43.3333333,35 C43.7933333,35 44.1666667,34.6275 44.1666667,34.1666667 C44.1666667,33.7058333 43.7933333,33.3333333 43.3333333,33.3333333 L40.8333333,33.3333333 L40.8333333,15 L35.8333333,15 L35.8333333,12.5 L29.1666667,12.5 L29.1666667,18.3333333 L24.1666667,18.3333333 L24.1666667,23.3333333 L20.8333333,23.3333333 L20.8333333,15 L14.1666667,15 L14.1666667,20 L9.16666667,20 L9.16666667,33.3333333 L6.66666667,33.3333333 C6.20666667,33.3333333 5.83333333,33.7058333 5.83333333,34.1666667 C5.83333333,34.6275 6.20666667,35 6.66666667,35 Z M39.1666667,16.6666667 L39.1666667,33.3333333 L35.8333333,33.3333333 L35.8333333,16.6666667 L39.1666667,16.6666667 Z M30.8333333,14.1666667 L34.1666667,14.1666667 L34.1666667,15 L34.1666667,33.3333333 L30.8333333,33.3333333 L30.8333333,18.3333333 L30.8333333,14.1666667 Z M25.8333333,20 L29.1666667,20 L29.1666667,33.3333333 L25.8333333,33.3333333 L25.8333333,23.3333333 L25.8333333,20 Z M24.1666667,25 L24.1666667,33.3333333 L20.8333333,33.3333333 L20.8333333,25 L24.1666667,25 Z M18.3333333,16.6666667 C18.3333333,17.1266667 18.7066667,17.5 19.1666667,17.5 L19.1666667,19.1666667 C18.7066667,19.1666667 18.3333333,19.54 18.3333333,20 C18.3333333,20.46 18.7066667,20.8333333 19.1666667,20.8333333 L19.1666667,22.5 C18.7066667,22.5 18.3333333,22.8733333 18.3333333,23.3333333 C18.3333333,23.7933333 18.7066667,24.1666667 19.1666667,24.1666667 L19.1666667,25.8333333 C18.7066667,25.8333333 18.3333333,26.2066667 18.3333333,26.6666667 C18.3333333,27.1266667 18.7066667,27.5 19.1666667,27.5 L19.1666667,29.1666667 C18.7066667,29.1666667 18.3333333,29.54 18.3333333,30 C18.3333333,30.46 18.7066667,30.8333333 19.1666667,30.8333333 L19.1666667,32.5 C18.7066667,32.5 18.3333333,32.8733333 18.3333333,33.3333333 L16.6666667,33.3333333 C16.6666667,32.8733333 16.2933333,32.5 15.8333333,32.5 L15.8333333,30.8333333 C16.2933333,30.8333333 16.6666667,30.46 16.6666667,30 C16.6666667,29.54 16.2933333,29.1666667 15.8333333,29.1666667 L15.8333333,27.5 C16.2933333,27.5 16.6666667,27.1266667 16.6666667,26.6666667 C16.6666667,26.2066667 16.2933333,25.8333333 15.8333333,25.8333333 L15.8333333,24.1666667 C16.2933333,24.1666667 16.6666667,23.7933333 16.6666667,23.3333333 C16.6666667,22.8733333 16.2933333,22.5 15.8333333,22.5 L15.8333333,20.8333333 C16.2933333,20.8333333 16.6666667,20.46 16.6666667,20 C16.6666667,19.54 16.2933333,19.1666667 15.8333333,19.1666667 L15.8333333,17.5 C16.2933333,17.5 16.6666667,17.1266667 16.6666667,16.6666667 L18.3333333,16.6666667 Z M10.8333333,21.6666667 L14.1666667,21.6666667 L14.1666667,33.3333333 L10.8333333,33.3333333 L10.8333333,21.6666667 Z" id="Shape"></path>
            </g>
        </g>
    </g>
</svg>