<?xml version="1.0" encoding="UTF-8"?>
<svg width="50px" height="50px" viewBox="0 0 50 50" version="1.1" xmlns="http://www.w3.org/2000/svg" xmlns:xlink="http://www.w3.org/1999/xlink">
    <!-- Generator: Sketch 41.2 (35397) - http://www.bohemiancoding.com/sketch -->
    <title>003-interface</title>
    <desc>Created with Sketch.</desc>
    <defs></defs>
    <g id="Page-1" stroke="none" stroke-width="1" fill="none" fill-rule="evenodd">
        <g id="003-interface" fill="#000000">
            <g id="Group">
                <path d="M47.79,0.660833333 L10.5433333,0.660833333 C9.32416667,0.660833333 8.33333333,1.6525 8.33333333,2.87166667 L8.33333333,10.6608333 L2.21,10.6608333 C0.990833333,10.6608333 0,11.6525 0,12.8716667 L0,49.3391667 L7.845,41.4941667 L36.9566667,41.4941667 C38.1758333,41.4941667 39.1666667,40.5025 39.1666667,39.2833333 L39.1666667,33.9941667 L42.155,33.9941667 L50,41.8391667 L50,2.87166667 C50,1.6525 49.0091667,0.660833333 47.79,0.660833333 Z M37.5,39.2833333 C37.5,39.5833333 37.2558333,39.8275 36.9566667,39.8275 L7.155,39.8275 L1.66666667,45.3158333 L1.66666667,12.8716667 C1.66666667,12.5716667 1.91083333,12.3275 2.21,12.3275 L8.33333333,12.3275 L36.9566667,12.3275 C37.2558333,12.3275 37.5,12.5716667 37.5,12.8716667 L37.5,33.9941667 L37.5,39.2833333 Z M48.3333333,37.8158333 L42.845,32.3275 L39.1666667,32.3275 L39.1666667,12.8716667 C39.1666667,11.6525 38.1758333,10.6608333 36.9566667,10.6608333 L10,10.6608333 L10,2.87166667 C10,2.57166667 10.2441667,2.3275 10.5433333,2.3275 L47.7891667,2.3275 C48.0891667,2.3275 48.3333333,2.57166667 48.3333333,2.87166667 L48.3333333,37.8158333 Z" id="Shape"></path>
                <path d="M9.16666667,20.6608333 L19.1666667,20.6608333 C19.6275,20.6608333 20,20.2875 20,19.8275 C20,19.3675 19.6275,18.9941667 19.1666667,18.9941667 L9.16666667,18.9941667 C8.70583333,18.9941667 8.33333333,19.3675 8.33333333,19.8275 C8.33333333,20.2875 8.70583333,20.6608333 9.16666667,20.6608333 Z" id="Shape"></path>
                <path d="M30,24.8275 L9.16666667,24.8275 C8.70583333,24.8275 8.33333333,25.2008333 8.33333333,25.6608333 C8.33333333,26.1208333 8.70583333,26.4941667 9.16666667,26.4941667 L30,26.4941667 C30.4608333,26.4941667 30.8333333,26.1208333 30.8333333,25.6608333 C30.8333333,25.2008333 30.4608333,24.8275 30,24.8275 Z" id="Shape"></path>
                <path d="M30,30.6608333 L9.16666667,30.6608333 C8.70583333,30.6608333 8.33333333,31.0341667 8.33333333,31.4941667 C8.33333333,31.9541667 8.70583333,32.3275 9.16666667,32.3275 L30,32.3275 C30.4608333,32.3275 30.8333333,31.9541667 30.8333333,31.4941667 C30.8333333,31.0341667 30.4608333,30.6608333 30,30.6608333 Z" id="Shape"></path>
            </g>
        </g>
    </g>
</svg>