<?xml version="1.0" encoding="UTF-8"?>
<svg width="29px" height="50px" viewBox="0 0 29 50" version="1.1" xmlns="http://www.w3.org/2000/svg" xmlns:xlink="http://www.w3.org/1999/xlink">
    <!-- Generator: Sketch 41.2 (35397) - http://www.bohemiancoding.com/sketch -->
    <title>005-technology</title>
    <desc>Created with Sketch.</desc>
    <defs></defs>
    <g id="Page-1" stroke="none" stroke-width="1" fill="none" fill-rule="evenodd">
        <g id="005-technology" fill="#000000">
            <g id="Group">
                <path d="M24.063871,0 L4.64580645,0 C2.10849462,0 0.0443010753,2.06419355 0.0443010753,4.60150538 L0.0443010753,45.3984946 C0.0443010753,47.9358065 2.10849462,50 4.64580645,50 L24.063871,50 C26.6011828,50 28.6653763,47.9358065 28.6653763,45.3984946 L28.6653763,4.60150538 C28.6653763,2.06419355 26.6011828,0 24.063871,0 Z M1.6572043,11.3978495 L27.0524731,11.3978495 L27.0524731,38.6021505 L1.6572043,38.6021505 L1.6572043,11.3978495 Z M4.64580645,1.61290323 L24.063871,1.61290323 C25.711828,1.61290323 27.0524731,2.95365591 27.0524731,4.60150538 L27.0524731,9.78494624 L1.6572043,9.78494624 L1.6572043,4.60150538 C1.6572043,2.95365591 2.99784946,1.61290323 4.64580645,1.61290323 Z M24.063871,48.3870968 L4.64580645,48.3870968 C2.99784946,48.3870968 1.6572043,47.0463441 1.6572043,45.3984946 L1.6572043,40.2150538 L27.0524731,40.2150538 L27.0524731,45.3984946 C27.0524731,47.0463441 25.711828,48.3870968 24.063871,48.3870968 Z" id="Shape"></path>
                <path d="M12.0967742,6.50537634 L16.6129032,6.50537634 C17.0582796,6.50537634 17.4193548,6.1444086 17.4193548,5.69892473 C17.4193548,5.25344086 17.0582796,4.89247312 16.6129032,4.89247312 L12.0967742,4.89247312 C11.6513978,4.89247312 11.2903226,5.25344086 11.2903226,5.69892473 C11.2903226,6.1444086 11.6513978,6.50537634 12.0967742,6.50537634 Z" id="Shape"></path>
                <path d="M14.3548387,41.8817204 C13.0207527,41.8817204 11.9354839,42.9670968 11.9354839,44.3010753 C11.9354839,45.6350538 13.0207527,46.7204301 14.3548387,46.7204301 C15.6889247,46.7204301 16.7741935,45.6350538 16.7741935,44.3010753 C16.7741935,42.9670968 15.6888172,41.8817204 14.3548387,41.8817204 Z M14.3548387,45.1075269 C13.9101075,45.1075269 13.5483871,44.7458065 13.5483871,44.3010753 C13.5483871,43.8563441 13.9101075,43.4946237 14.3548387,43.4946237 C14.7995699,43.4946237 15.1612903,43.8563441 15.1612903,44.3010753 C15.1612903,44.7458065 14.7994624,45.1075269 14.3548387,45.1075269 Z" id="Shape"></path>
            </g>
        </g>
    </g>
</svg>