<?xml version="1.0" encoding="UTF-8"?>
<svg width="64px" height="50px" viewBox="0 0 64 50" version="1.1" xmlns="http://www.w3.org/2000/svg" xmlns:xlink="http://www.w3.org/1999/xlink">
    <!-- Generator: Sketch 41.2 (35397) - http://www.bohemiancoding.com/sketch -->
    <title>006-browser</title>
    <desc>Created with Sketch.</desc>
    <defs></defs>
    <g id="Page-1" stroke="none" stroke-width="1" fill="none" fill-rule="evenodd">
        <g id="006-browser" fill="#000000">
            <path d="M57.6748768,0.00985221675 L5.37931034,0.00985221675 C2.41317734,0.00985221675 0,2.42302956 0,5.38916256 L0,44.6108374 C0,47.5769704 2.41317734,49.9901478 5.37931034,49.9901478 L57.6748768,49.9901478 C60.6410099,49.9901478 63.0541872,47.5769704 63.0541872,44.6108374 L63.0541872,5.38916256 C63.0541872,2.42302956 60.6410099,0.00985221675 57.6748768,0.00985221675 Z M61.0114532,44.6108374 C61.0114532,46.4506158 59.5146552,47.9474138 57.6748768,47.9474138 L5.37931034,47.9474138 C3.53953202,47.9474138 2.04273399,46.4506158 2.04273399,44.6108374 L2.04273399,10.7685961 L61.01133,10.7685961 L61.01133,44.6108374 L61.0114532,44.6108374 Z M61.0114532,8.72573892 L2.04273399,8.72573892 L2.04273399,5.38916256 C2.04273399,3.54938424 3.53953202,2.05258621 5.37931034,2.05258621 L57.6748768,2.05258621 C59.5146552,2.05258621 61.0114532,3.54938424 61.0114532,5.38916256 L61.0114532,8.72573892 Z" id="Shape"></path>
            <path d="M7.55837438,4.36785714 L6.46884236,4.36785714 C5.90480296,4.36785714 5.44741379,4.82512315 5.44741379,5.38928571 C5.44741379,5.95332512 5.9046798,6.41071429 6.46884236,6.41071429 L7.55837438,6.41071429 C8.12241379,6.41071429 8.57980296,5.95344828 8.57980296,5.38928571 C8.5796798,4.82512315 8.12241379,4.36785714 7.55837438,4.36785714 Z" id="Shape"></path>
            <path d="M11.9162562,4.36785714 L10.8267241,4.36785714 C10.2626847,4.36785714 9.80529557,4.82512315 9.80529557,5.38928571 C9.80529557,5.95332512 10.2625616,6.41071429 10.8267241,6.41071429 L11.9162562,6.41071429 C12.4802956,6.41071429 12.9376847,5.95344828 12.9376847,5.38928571 C12.9376847,4.82512315 12.4804187,4.36785714 11.9162562,4.36785714 Z" id="Shape"></path>
            <path d="M16.2742611,4.36785714 L15.1847291,4.36785714 C14.6206897,4.36785714 14.1633005,4.82512315 14.1633005,5.38928571 C14.1633005,5.95332512 14.6205665,6.41071429 15.1847291,6.41071429 L16.2742611,6.41071429 C16.8383005,6.41071429 17.2956897,5.95344828 17.2956897,5.38928571 C17.2956897,4.82512315 16.8383005,4.36785714 16.2742611,4.36785714 Z" id="Shape"></path>
            <path d="M16.5419951,29.3580049 L23.5799261,21.3146552 C23.9513547,20.8900246 23.9082512,20.2448276 23.4837438,19.8732759 C23.0592365,19.5018473 22.4140394,19.5448276 22.0424877,19.9694581 L14.4160099,28.6853448 C14.079064,29.0704433 14.079064,29.6454433 14.4160099,30.0305419 L22.0424877,38.7464286 C22.2444581,38.9770936 22.5273399,39.095197 22.8115764,39.095197 C23.0503695,39.095197 23.2900246,39.0119458 23.4837438,38.8426108 C23.9082512,38.4710591 23.9512315,37.8258621 23.5799261,37.4013547 L16.5419951,29.3580049 Z" id="Shape"></path>
            <path d="M48.6381773,28.6850985 L41.0116995,19.9694581 C40.6401478,19.5449507 39.9949507,19.5019704 39.5704433,19.8732759 C39.145936,20.2448276 39.1029557,20.8900246 39.4742611,21.314532 L46.5121921,29.3578818 L39.4742611,37.4012315 C39.1027094,37.8258621 39.1458128,38.470936 39.5704433,38.8424877 C39.7642857,39.012069 40.0039409,39.0950739 40.2426108,39.0950739 C40.5268473,39.0950739 40.8098522,38.9769704 41.0116995,38.7463054 L48.6381773,30.0304187 C48.9751232,29.645197 48.9751232,29.070197 48.6381773,28.6850985 Z" id="Shape"></path>
            <path d="M36.2815271,18.6112069 C35.76133,18.3923645 35.1625616,18.6364532 34.9437192,19.1560345 L26.2278325,39.8564039 C26.0089901,40.3763547 26.2528325,40.9751232 26.7726601,41.1942118 C26.9022167,41.2486453 27.0364532,41.2745074 27.1685961,41.2745074 C27.5672414,41.2745074 27.945936,41.039532 28.110468,40.6492611 L36.8263547,19.9490148 C37.0453202,19.429064 36.8013547,18.8300493 36.2815271,18.6112069 Z" id="Shape"></path>
        </g>
    </g>
</svg>